<?xml version="1.0" standalone="no"?>
<svg version="1.0" xmlns="http://www.w3.org/2000/svg"
 width="512.000000pt" height="512.000000pt" viewBox="0 0 512.000000 512.000000"
 preserveAspectRatio="xMidYMid meet">
<g transform="translate(0.000000,512.000000) scale(0.100000,-0.100000)"
fill="#000000" stroke="none">
<path d="M500 3153 l0 -1968 471 471 471 471 -35 74 c-82 169 -115 384 -88
559 17 108 71 257 127 352 66 111 211 256 322 322 95 56 244 110 352 127 174
27 391 -7 555 -86 l70 -34 840 839 840 840 -1963 0 -1962 0 0 -1967z"/>
<path d="M4107 4092 c-554 -554 -1007 -1010 -1007 -1014 0 -3 11 -31 25 -63
14 -31 38 -96 52 -144 24 -78 27 -101 27 -251 0 -151 -3 -172 -28 -255 -15
-49 -43 -123 -62 -162 l-35 -73 888 -928 c488 -510 948 -990 1021 -1067 l132
-139 0 2552 c0 1404 -1 2552 -3 2552 -1 0 -456 -454 -1010 -1008z"/>
<path d="M2148 3055 c-82 -22 -141 -57 -204 -119 -142 -142 -173 -337 -83
-523 29 -62 130 -163 192 -192 186 -90 381 -59 523 83 179 180 179 452 0 632
-115 114 -279 160 -428 119z"/>
<path d="M915 890 l-890 -890 2198 0 2199 0 -114 120 c-519 549 -1585 1659
-1594 1659 -7 1 -40 -12 -75 -29 -122 -57 -207 -73 -379 -73 -172 0 -257 16
-379 73 -35 17 -66 30 -70 30 -3 0 -407 -400 -896 -890z m1802 678 c30 -28 31
-83 1 -115 l-21 -23 -436 0 c-433 0 -435 0 -458 22 -30 28 -31 83 -1 115 l21
23 436 0 c433 0 435 0 458 -22z m0 -230 c30 -28 31 -83 1 -115 l-21 -23 -436
0 c-433 0 -435 0 -458 22 -30 28 -31 83 -1 115 l21 23 436 0 c433 0 435 0 458
-22z m0 -230 c30 -28 31 -83 1 -115 l-21 -23 -436 0 c-433 0 -435 0 -458 22
-30 28 -31 83 -1 115 l21 23 436 0 c433 0 435 0 458 -22z m-200 -230 c30 -28
31 -83 1 -115 -21 -23 -24 -23 -257 -23 -227 0 -235 1 -258 22 -30 28 -31 83
-1 115 21 23 24 23 257 23 227 0 235 -1 258 -22z"/>
</g>
</svg>
