<?xml version="1.0" standalone="no"?>
<!DOCTYPE svg PUBLIC "-//W3C//DTD SVG 20010904//EN"
 "http://www.w3.org/TR/2001/REC-SVG-20010904/DTD/svg10.dtd">
<svg version="1.0" xmlns="http://www.w3.org/2000/svg"
 width="512.000000pt" height="512.000000pt" viewBox="0 0 512.000000 512.000000"
 preserveAspectRatio="xMidYMid meet">
<metadata>
Created by potrace 1.14, written by Peter Selinger 2001-2017
</metadata>
<g transform="translate(0.000000,512.000000) scale(0.100000,-0.100000)"
fill="#000000" stroke="none">
<path d="M500 3153 l0 -1968 472 472 472 472 -26 48 c-97 180 -131 424 -89
628 40 194 123 348 261 485 265 266 648 349 1003 220 44 -16 96 -39 115 -50
l36 -21 840 840 841 841 -1963 0 -1962 0 0 -1967z"/>
<path d="M4106 4091 l-1008 -1008 35 -89 c64 -159 71 -202 71 -379 -1 -145 -3
-169 -28 -250 -15 -49 -43 -123 -62 -163 l-35 -72 874 -913 c480 -501 938
-980 1018 -1064 l144 -152 3 1274 c1 701 1 1849 0 2550 l-3 1275 -1009 -1009z"/>
<path d="M2157 3059 c-74 -17 -152 -62 -213 -123 -180 -180 -180 -452 0 -632
180 -180 452 -180 632 0 180 180 180 452 0 632 -112 112 -270 158 -419 123z"/>
<path d="M915 890 l-890 -890 2200 0 2200 0 -76 78 c-42 42 -426 443 -853 890
-427 446 -781 812 -785 812 -5 0 -37 -13 -72 -30 -122 -57 -207 -73 -379 -73
-172 0 -257 16 -379 73 -35 17 -66 30 -70 30 -3 0 -407 -400 -896 -890z m1779
696 c67 -28 67 -124 0 -152 -44 -18 -812 -21 -864 -3 -68 24 -73 126 -6 155
46 20 822 20 870 0z m0 -230 c67 -28 67 -124 0 -152 -44 -18 -812 -21 -864 -3
-68 24 -73 126 -6 155 46 20 822 20 870 0z m0 -230 c67 -28 67 -124 0 -152
-44 -18 -812 -21 -864 -3 -68 24 -73 126 -6 155 46 20 822 20 870 0z m-204
-227 c72 -25 72 -133 0 -158 -20 -7 -109 -11 -230 -11 -121 0 -210 4 -230 11
-68 24 -73 126 -6 155 40 17 417 20 466 3z"/>
</g>
</svg>
